# xmcd CD database file
#
# Track frame offsets:
#        150
#        14199
#        28043
#        45629
#        57939
#        92890
#        104749
#        130482
#        155636
#        178017
#        186118
#
# Disc length: 2670 seconds
#
# Revision: 0
# Processed by: cddbd v1.5.2PL0 Copyright (c) Steve Scherf et al.
# Submitted via: CUERipper 2.1.5
#
DISCID=a00a6c0b
DTITLE=Brian Golden - 1420 proper street locations
DYEAR=2005
DGENRE=
TTITLE0=Here I Am
TTITLE1=So Long, So Far
TTITLE2=Why Don't We
TTITLE3=Someday
TTITLE4=1420 Blues
TTITLE5=Sisters of the Instrument
TTITLE6=Little Brenda
TTITLE7=Truth
TTITLE8=Last Call
TTITLE9=#10
TTITLE10=Someday (dance remix)
EXTD=
EXTT0=
EXTT1=
EXTT2=
EXTT3=
EXTT4=
EXTT5=
EXTT6=
EXTT7=
EXTT8=
EXTT9=
EXTT10=
PLAYORDER=
